HIERARCHY
ROOT pelvis
{
  OFFSET 0 100 0
  CHANNELS 6 Xposition Yposition Zposition Zrotation Xrotation Yrotation
  JOINT pelvis_right_femur
  {
    OFFSET -10.78128 -3.44521 -0.5502486
    CHANNELS 3 Zrotation Xrotation Yrotation
    JOINT right_femur_tibia
    {
      OFFSET -0.8047443 -44.0398 -0.1307829
      CHANNELS 3 Zrotation Xrotation Yrotation
      JOINT right_tibia_foot
      {
        OFFSET 3.006224 -47.83518 -5
        CHANNELS 3 Zrotation Xrotation Yrotation
        End Site
        {
          OFFSET 0 -5 15
        }
      }
    }
  }
  JOINT pelvis_left_femur
  {
    OFFSET 10.78128 -3.44521 -0.5502486
    CHANNELS 3 Zrotation Xrotation Yrotation
    JOINT left_femur_tibia
    {
      OFFSET 0.8047443 -44.0398 -0.1307829
      CHANNELS 3 Zrotation Xrotation Yrotation
      JOINT left_tibia_foot
      {
        OFFSET -4.370144 -48.10324 -4.275266
        CHANNELS 3 Zrotation Xrotation Yrotation
        End Site
        {
          OFFSET 0 -5 15
        }
      }
    }
  }
  JOINT pelvis_spine1
  {
    OFFSET 0 6.468898 -3.129235
    CHANNELS 3 Zrotation Xrotation Yrotation
    JOINT spine1
    {
      OFFSET 0 23.15396 4.99043
      CHANNELS 3 Zrotation Xrotation Yrotation
      JOINT spine2
      {
        OFFSET 0 20.79997 -5.064912
        CHANNELS 3 Zrotation Xrotation Yrotation
        JOINT neck
        {
          OFFSET 0 14.38658 9.616178
          CHANNELS 3 Zrotation Xrotation Yrotation
          End Site
          {
            OFFSET 0 20 0
          }
        }
      }
      JOINT right_manubrium
      {
        OFFSET -5.722621 16.35077 3.967754
        CHANNELS 3 Zrotation Xrotation Yrotation
        JOINT right_clavicle
        {
          OFFSET -13.16364 1.694482 -4.693211
          CHANNELS 3 Zrotation Xrotation Yrotation
          JOINT right_humerus
          {
            OFFSET -28.5034 -0.3100689 -2.792744
            CHANNELS 3 Zrotation Xrotation Yrotation
            JOINT right_radius
            {
              OFFSET -25.15693 0.02248979 -1.271978
              CHANNELS 3 Zrotation Xrotation Yrotation
              End Site
              {
                OFFSET -15 0 0
              }
            }
          }
        }
      }
      JOINT left_manubrium
      {
        OFFSET 5.722621 16.35077 3.967754
        CHANNELS 3 Zrotation Xrotation Yrotation
        JOINT left_clavicle
        {
          OFFSET 13.16364 1.694482 -4.693211
          CHANNELS 3 Zrotation Xrotation Yrotation
          JOINT left_humerus
          {
            OFFSET 29.39168 -1.063119 -2.237045
            CHANNELS 3 Zrotation Xrotation Yrotation
            JOINT left_radius
            {
              OFFSET 24.59957 -0.9528479 0.9047498
              CHANNELS 3 Zrotation Xrotation Yrotation
              End Site
              {
                OFFSET 15 -0 -0
              }
            }
          }
        }
      }
    }
  }
}
MOTION
Frames: 21
Frame Time: 0.0416666666667
0 103.5113 0 2.215836 -1.136294 0.2845737 1.167466 -9.879299 8.639142 -0 33.62303 -0 -5.249664 -17.86547 -2.152906 -8.065946 10.01821 -23.39996 -0 5.405489 -0 7.590164 -16.09208 26.45541 -4.346467 -5.099201 4.989851 2.019279 9.20097 -7.724438 0.8379537 22.81524 7.165496 3.254228 -23.0704 8.790967 6.355142 -19.71893 11.57323 86.33724 35.94957 -19.81576 -0 0 16.2071 -7.592271 8.258064 4.619862 5.517498 -19.49335 -1.680726 -94.76218 29.73431 22.8754 0 0 -15.99978 3.495948 17.89845 9.54505
0.3442104 103.6004 1.459081 2.132211 -0.9263165 0.4990927 1.285131 -10.36843 8.388138 -0 31.93949 -0 -5.272903 -17.36268 -1.852655 -7.983815 9.99502 -23.09342 -0 6.003818 -0 7.280476 -16.19861 26.05506 -4.285813 -5.007161 4.992386 2.086555 9.152477 -7.713728 0.8580494 22.73423 7.16767 3.278994 -23.12975 8.785398 6.30995 -19.59491 11.56773 86.37708 35.93483 -19.89934 -0 0 16.03217 -7.662739 8.320314 4.650987 5.596777 -19.55294 -1.659165 -94.63378 29.67023 22.66243 0 0 -16.23597 3.531866 17.80083 9.505651
0.6994979 103.6659 3.089833 2.021474 -0.6509237 0.693073 1.427803 -10.9133 8.043918 -0 29.63715 -0 -5.315871 -16.70429 -1.442628 -7.874327 9.919392 -22.65336 -0 6.940445 -0 6.821056 -16.28271 25.46955 -4.194021 -4.89472 4.999554 2.168655 9.089519 -7.698296 0.8786747 22.631 7.170445 3.309948 -23.19415 8.768588 6.247646 -19.42209 11.56096 86.43918 35.91465 -20.0106 -0 0 15.78827 -7.768788 8.413718 4.700605 5.688841 -19.62843 -1.634292 -94.45901 29.57557 22.38304 0 0 -16.52607 3.573497 17.66099 9.460596
1.06648 103.7116 4.937388 1.894157 -0.3295145 0.8696593 1.577015 -11.40726 7.62425 -0 26.84312 -0 -5.383265 -15.94503 -0.9455131 -7.744551 9.767952 -22.09129 -0 8.235899 -0 6.216628 -16.30002 24.70936 -4.070904 -4.776195 5.013357 2.254947 9.017627 -7.678393 0.8945237 22.51594 7.173498 3.34359 -23.24972 8.735786 6.17139 -19.20813 11.55384 86.52446 35.89021 -20.1412 -0 0 15.4862 -7.910752 8.53809 4.770478 5.778628 -19.71196 -1.610287 -94.24824 29.45124 22.06004 0 0 -16.83403 3.613946 17.48275 9.417787
1.445547 103.7444 7.040949 1.759016 0.02126406 1.034065 1.719509 -11.77045 7.144409 -0 23.66938 -0 -5.477503 -15.1301 -0.3808666 -7.599501 9.522825 -21.41956 -0 9.891729 -0 5.478164 -16.2175 23.79104 -3.917748 -4.66209 5.0356 2.337255 8.941431 -7.653961 0.9019029 22.39723 7.176348 3.377182 -23.28617 8.683788 6.083885 -18.96082 11.5473 86.63169 35.86225 -20.28273 -0 0 15.13706 -8.088719 8.692378 4.861916 5.855096 -19.79734 -1.590195 -94.01062 29.2984 21.71245 0 0 -17.13246 3.648174 17.27009 9.382914
1.83729 103.7728 9.433112 1.623335 0.3862223 1.192302 1.846465 -11.94734 6.618091 -0 20.21628 -0 -5.597945 -14.29682 0.2343468 -7.442492 9.168245 -20.65194 -0 11.88708 -0 4.624543 -16.01415 22.73955 -3.737962 -4.558766 5.068528 2.409647 8.864888 -7.624135 0.8988366 22.28109 7.178181 3.408735 -23.29642 8.610851 5.987364 -18.68901 11.54239 86.75606 35.83117 -20.42497 -0 0 14.75369 -8.303388 8.874602 4.97622 5.911385 -19.87993 -1.575753 -93.75438 29.11836 21.35601 0 0 -17.40263 3.672948 17.02716 9.359429
2.242965 103.804 12.13855 1.494128 0.7492516 1.349929 1.951247 -11.8954 6.058523 -0 16.57866 -0 -5.740154 -13.47921 0.884879 -7.275846 8.68255 -19.8034 -0 14.17987 -0 3.682939 -15.67887 21.58988 -3.537729 -4.468672 5.116055 2.467509 8.791792 -7.586376 0.8848493 22.17265 7.177565 3.436833 -23.27522 8.516021 5.883607 -18.40379 11.54063 86.88727 35.79725 -20.55288 -0 0 14.35271 -8.55789 9.082089 5.115733 5.94413 -19.95589 -1.567366 -93.48724 28.91226 21.00465 0 0 -17.63262 3.686295 16.758 9.349073
2.664974 103.8425 15.17198 1.379718 1.090573 1.510764 2.026832 -11.57126 5.479554 -0 12.85269 -0 -5.894973 -12.71347 1.556209 -7.101431 8.028476 -18.8898 -0 16.70878 -0 2.688882 -15.20761 20.38847 -3.326742 -4.390663 5.185236 2.506415 8.726382 -7.535438 0.860679 22.07705 7.172116 3.460409 -23.21728 8.39831 5.773956 -18.11984 11.54436 87.00743 35.76112 -20.64306 -0 0 13.95677 -8.860021 9.311761 5.285134 5.9526 -20.02135 -1.564087 -93.21696 28.68072 20.67209 0 0 -17.81497 3.686807 16.46618 9.352533
3.107228 103.8882 18.53583 1.290805 1.385267 1.675623 2.064393 -10.92149 4.896393 -0 9.13999 -0 -6.048065 -12.04125 2.233835 -6.920484 7.147777 -17.92749 -0 19.39617 -0 1.685168 -14.60165 19.19287 -3.118441 -4.320438 5.286996 2.521371 8.673692 -7.462882 0.8280053 22.00014 7.158351 3.478594 -23.11614 8.256151 5.659336 -17.8561 11.55686 87.09011 35.72394 -20.66209 -0 0 13.59561 -9.223429 9.560285 5.492184 5.937947 -20.07186 -1.563711 -92.95163 28.42358 20.37294 0 0 -17.94495 3.673156 16.15457 9.369948
3.575176 103.9365 22.21874 1.239912 1.605191 1.841514 2.054209 -9.885607 4.325446 -0 5.544136 -0 -6.181175 -11.50721 2.903391 -6.732622 5.967716 -16.93277 -0 22.15473 -0 0.7176413 -13.86732 18.06632 -2.928714 -4.25156 5.434863 2.507001 8.639226 -7.358091 0.7891183 21.94822 7.132074 3.490725 -22.96451 8.087557 5.540342 -17.63413 11.58202 87.10341 35.68724 -20.5699 -0 0 13.30345 -9.665889 9.824052 5.746874 5.902579 -20.10261 -1.563164 -92.69931 28.14019 20.12215 0 0 -18.01965 3.644037 15.8254 9.401119
4.07536 103.9791 26.19626 1.238991 1.72439 2.001797 1.988508 -8.411197 3.78314 -0 2.159476 -0 -6.27549 -11.15083 3.551727 -6.534775 4.420204 -15.92087 -0 24.89867 -0 -0.1721525 -13.01636 17.06716 -2.772941 -4.177234 5.641594 2.458646 8.627928 -7.210913 0.7464962 21.92682 7.089335 3.49649 -22.75612 7.891006 5.417419 -17.47428 11.62338 87.01697 35.65212 -20.32872 -0 0 13.11265 -10.20448 10.09907 6.058846 5.849567 -20.10933 -1.559279 -92.46706 27.83014 19.93278 0 0 -18.03802 3.598504 15.48066 9.445492
4.61461 104.0059 30.43393 1.296583 1.724854 2.147333 1.863929 -6.471404 3.284412 0 -0.9398445 0 -6.315421 -10.99727 4.168195 -6.321194 2.463099 -14.90497 -0 27.55394 -0 -0.9537715 -12.06578 16.23848 -2.662934 -4.092191 5.915494 2.373598 8.643083 -7.014515 0.702421 21.93925 7.027488 3.496068 -22.48784 7.666475 5.291094 -17.39146 11.68314 86.80949 35.61832 -19.91253 -0 0 13.04679 -10.85044 10.38091 6.434528 5.782097 -20.08934 -1.549628 -92.25988 27.49397 19.81361 0 0 -18.00094 3.536313 15.12254 9.502165
5.199252 104.0072 34.89176 1.416062 1.599423 2.268086 1.681791 -4.07489 2.841815 0 -3.702233 0 -6.290684 -11.05186 4.745106 -6.084948 0.09315024 -13.89581 -0 30.06102 -0 -1.61043 -11.03713 15.60368 -2.605464 -3.993948 6.258302 2.251705 8.685805 -6.767038 0.6588026 21.98573 6.945835 3.490181 -22.16082 7.416113 5.162203 -17.39293 11.76157 86.47284 35.58362 -19.31225 -0 0 13.11731 -11.60651 10.66484 6.875517 5.703084 -20.04193 -1.533099 -92.08022 27.13369 19.76778 0 0 -17.91095 3.457871 14.75357 9.570145
5.834639 103.9752 39.52887 1.595139 1.351888 2.354602 1.446574 -1.268725 2.465505 0 -6.091056 0 -6.196253 -11.29789 5.276959 -5.820435 -2.649033 -12.90239 -0 32.36899 -0 -2.137265 -9.956589 15.16792 -2.602469 -3.88341 6.664521 2.095358 8.755131 -6.472093 0.6172358 22.06308 6.845922 3.480045 -21.7806 7.144641 5.032094 -17.47809 11.85676 86.0128 35.54371 -18.53657 -0 0 13.32337 -12.46696 10.94602 7.378295 5.614974 -19.96815 -1.510222 -91.92795 26.75295 19.79274 0 0 -17.77133 3.363756 14.37656 9.648919
6.525108 103.9052 44.3079 1.825935 0.99611 2.39913 1.164006 1.860447 2.163758 0 -8.071519 0 -6.031165 -11.69473 5.758758 -5.526431 -5.676084 -11.93396 -0 34.42415 -0 -2.537622 -8.856388 14.9222 -2.652017 -3.765206 7.121172 1.909293 8.848385 -6.138898 0.5791871 22.16443 6.73175 3.467307 -21.357 6.859754 4.902846 -17.63892 11.96446 85.44848 35.49259 -17.6114 -0 0 13.65324 -13.41875 11.21984 7.934449 5.519676 -19.87033 -1.483435 -91.8005 26.35728 19.88034 0 0 -17.58518 3.253994 13.99435 9.73922
7.274291 103.797 49.1989 2.095342 0.5550153 2.396393 0.8396629 5.186296 1.943408 0 -9.598866 0 -5.797294 -12.17684 6.184175 -5.209223 -8.85274 -11.00264 -0 36.15957 -0 -2.819379 -7.776632 14.8474 -2.749263 -3.647773 7.607772 1.700402 8.961586 -5.782243 0.5461647 22.27905 6.609894 3.453926 -20.90391 6.572408 4.777383 -17.86072 12.07792 84.81129 35.42322 -16.57881 -0 0 14.08585 -14.44274 11.48226 8.531044 5.418568 -19.75158 -1.457255 -91.69307 25.95424 20.01723 0 0 -17.35454 3.127463 13.60966 9.843638
8.085509 103.6551 54.18213 2.386232 0.05850673 2.343992 0.4783053 8.550809 1.809599 0 -10.61613 0 -5.498734 -12.65828 6.544655 -4.884576 -12.00513 -10.12542 -0 37.49414 -0 -2.992232 -6.764143 14.91781 -2.887246 -3.542555 8.097774 1.477267 9.089941 -5.421413 0.5197225 22.3931 6.489062 3.441928 -20.43834 6.296198 4.659295 -18.12364 12.18842 84.14207 35.32885 -15.49352 -0 0 14.59314 -15.51538 11.73016 9.151603 5.312581 -19.61547 -1.437947 -91.59919 25.55305 20.18598 0 0 -17.08023 2.981895 13.22491 9.966501
8.961965 103.4895 59.24899 2.680049 -0.4609119 2.242399 0.08392963 11.7866 1.764724 0 -11.06597 0 -5.141715 -13.04695 6.830324 -4.57661 -14.94784 -9.323561 -0 38.34613 -0 -3.066208 -5.866179 15.10482 -3.057753 -3.461787 8.562605 1.249121 9.228516 -5.077233 0.5012386 22.49177 6.378659 3.433014 -19.97818 6.04527 4.5522 -18.4057 12.28663 83.48463 35.20459 -14.41481 -0 0 15.14419 -16.61146 11.9617 9.778265 5.202415 -19.46575 -1.432366 -91.51179 25.16336 20.3677 0 0 -16.76274 2.814729 12.84225 10.11265
9.906559 103.3141 64.40057 2.960035 -0.9737288 2.094617 -0.3394661 14.74603 1.807132 0 -10.91038 0 -4.73448 -13.26385 7.032152 -4.313103 -17.51957 -8.619121 -0 38.65448 -0 -3.051183 -5.121577 15.38042 -3.252227 -3.41557 8.977002 1.024514 9.372919 -4.768207 0.4916014 22.56226 6.28686 3.428201 -19.53927 5.83152 4.458933 -18.68676 12.36462 82.87793 35.04852 -13.39618 -0 0 15.71 -17.70728 12.17641 10.3945 5.088847 -19.3063 -1.446403 -91.42446 24.79345 20.54515 0 0 -16.4038 2.624442 12.46366 10.28561
10.9214 103.1447 69.64461 3.213423 -1.457445 1.905693 -0.7865215 17.31994 1.930276 0 -10.14578 0 -4.286838 -13.25689 7.14369 -4.119305 -19.60686 -8.030392 -0 38.39429 -0 -2.957107 -4.55499 15.71951 -3.462425 -3.409687 9.322578 0.81046 9.519703 -4.507949 0.4910028 22.59595 6.219268 3.427679 -19.13327 5.662705 4.38101 -18.95098 12.41714 82.35095 34.86175 -12.47876 -0 0 16.26639 -18.78268 12.37505 10.98685 4.973148 -19.14125 -1.483949 -91.33187 24.44907 20.70404 0 0 -16.00834 2.411612 12.091 10.4861
12.00703 102.9971 74.9919 3.431769 -1.89772 1.682196 -1.248754 19.43749 2.122189 0 -8.809417 0 -3.80979 -13.00473 7.161304 -4.012807 -21.14641 -7.568224 -0 37.5813 -0 -2.794753 -4.176788 16.09986 -3.680412 -3.444687 9.588151 0.6125175 9.666363 -4.305043 0.4988675 22.58896 6.17866 3.430867 -18.76719 5.542134 4.318531 -19.18689 12.44203 81.92269 34.64785 -11.69131 -0 0 16.79335 -19.82074 12.55959 11.54483 4.857671 -18.97583 -1.546821 -91.22879 24.13322 20.83154 0 0 -15.58699 2.179523 11.7262 10.71121
